<svg width="16" height="16" viewBox="0 0 16 16" fill="none" xmlns="http://www.w3.org/2000/svg">
<path fill-rule="evenodd" clip-rule="evenodd" d="M3 2C3.55228 2 4 2.44772 4 3L4 13C4 13.5523 3.55229 14 3 14C2.44772 14 2 13.5523 2 13V3C2 2.44772 2.44772 2 3 2ZM6 3C5.44772 3 5 3.44772 5 4C5 4.55228 5.44772 5 6 5H13C13.5523 5 14 4.55228 14 4C14 3.44772 13.5523 3 13 3H6ZM6 7C5.44772 7 5 7.44772 5 8C5 8.55228 5.44772 9 6 9H13C13.5523 9 14 8.55228 14 8C14 7.44772 13.5523 7 13 7H6ZM6 11C5.44772 11 5 11.4477 5 12C5 12.5523 5.44772 13 6 13H13C13.5523 13 14 12.5523 14 12C14 11.4477 13.5523 11 13 11H6Z" fill="#232F3E"/>
</svg>
