<svg width="16" height="16" viewBox="0 0 16 16" fill="none" xmlns="http://www.w3.org/2000/svg">
<path fill-rule="evenodd" clip-rule="evenodd" d="M10 9H6C5.447 9 5 8.553 5 8C5 7.447 5.447 7 6 7H10C10.553 7 11 7.447 11 8C11 8.553 10.553 9 10 9M10 13H6C5.447 13 5 12.553 5 12C5 11.447 5.447 11 6 11H10C10.553 11 11 11.447 11 12C11 12.553 10.553 13 10 13M6 3H8C8.553 3 9 3.447 9 4C9 4.553 8.553 5 8 5H6C5.447 5 5 4.553 5 4C5 3.447 5.447 3 6 3M13.707 3.293L10.707 0.293C10.52 0.105 10.266 0 10 0H3C2.447 0 2 0.447 2 1V15C2 15.553 2.447 16 3 16H13C13.553 16 14 15.553 14 15V4C14 3.734 13.895 3.48 13.707 3.293" fill="#394451"/>
</svg>
