<svg width="16" height="16" viewBox="0 0 16 16" fill="none" xmlns="http://www.w3.org/2000/svg">
<path fill-rule="evenodd" clip-rule="evenodd" d="M3.44431 2.64683C4.78584 1.57883 6.47565 0.978027 8.26435 0.978027C12.043 0.978027 15.2459 3.65323 15.7142 7.20043C15.7658 7.59083 15.4733 7.94603 15.0616 7.99483C15.0295 7.99803 14.9982 7.99963 14.9678 7.99963C14.5941 7.99963 14.2704 7.73643 14.223 7.37723C13.8486 4.53963 11.2872 2.39963 8.26435 2.39963C6.93973 2.39963 5.6802 2.81323 4.6489 3.55323L5.38771 4.10923C5.63201 4.29323 5.7512 4.63643 5.67174 4.92123C5.59059 5.20763 5.30318 5.44923 4.99295 5.49243L2.48149 5.83563C2.44683 5.84043 2.41132 5.84283 2.37582 5.84283C2.18985 5.84283 1.99373 5.78203 1.85257 5.67643C1.67843 5.54683 1.55501 5.32443 1.54064 5.11563L1.39524 2.76683C1.37665 2.47563 1.56346 2.16443 1.8365 2.02923C2.10785 1.89563 2.48487 1.92763 2.72663 2.10683L3.44431 2.64683ZM14.0384 10.3421C14.2515 10.3125 14.5042 10.3781 14.6733 10.5061C14.8474 10.6389 14.9683 10.8637 14.9793 11.0749L15.1247 13.4109C15.1433 13.7021 14.9565 14.0133 14.6834 14.1485C14.571 14.2037 14.4408 14.2309 14.3098 14.2309C14.1238 14.2309 13.9353 14.1765 13.7933 14.0709L13.0748 13.5309C11.7341 14.5989 10.0434 15.1997 8.25556 15.1997C4.47611 15.1997 1.27402 12.5245 0.805713 8.97731C0.754149 8.58771 1.04579 8.23171 1.45746 8.18371C1.87505 8.13571 2.2453 8.41171 2.29602 8.80051C2.67135 11.6381 5.23352 13.7781 8.25556 13.7781C9.58018 13.7781 10.8389 13.3645 11.871 12.6245L11.1322 12.0685C10.8879 11.8853 10.7679 11.5413 10.8482 11.2557C10.9293 10.9701 11.2167 10.7285 11.527 10.6861L14.0384 10.3421Z" fill="#A2ABB5"/>
</svg>
