<svg width="25" height="25" viewBox="0 0 25 25" fill="none" xmlns="http://www.w3.org/2000/svg">
<path fill-rule="evenodd" clip-rule="evenodd" d="M1.38889 6.25049H23.6111C24.4444 6.25049 25 5.62549 25 4.68799C25 3.75049 24.4444 3.12549 23.6111 3.12549H1.38889C0.555556 3.12549 0 3.75049 0 4.68799C0 5.62549 0.555556 6.25049 1.38889 6.25049ZM23.6111 18.7504H1.38889C0.555556 18.7504 0 19.3754 0 20.3129C0 21.2504 0.555556 21.8754 1.38889 21.8754H23.6111C24.4444 21.8754 25 21.2504 25 20.3129C25 19.3754 24.4444 18.7504 23.6111 18.7504ZM1.38889 10.9379H23.6111C24.4444 10.9379 25 11.5629 25 12.5004C25 13.4379 24.4444 14.0629 23.6111 14.0629H1.38889C0.555556 14.0629 0 13.4379 0 12.5004C0 11.5629 0.555556 10.9379 1.38889 10.9379Z" fill="#161E2D"/>
</svg>
