<svg width="22" height="23" viewBox="0 0 22 23" fill="none" xmlns="http://www.w3.org/2000/svg">
<path fill-rule="evenodd" clip-rule="evenodd" d="M2 0.203613C0.895 0.203613 0 1.16761 0 2.35761V15.0496C0 16.2386 0.895 17.2036 2 17.2036H6.667V21.1786C6.667 22.5496 8.154 23.2976 9.131 22.4166L14.698 17.2036H20.001C21.106 17.2036 22.001 16.2396 22.001 15.0496V2.35761C22.001 1.16861 21.106 0.203613 20.001 0.203613H2ZM2 2.20361H20V15.2036H14.818C14.348 15.2036 13.893 15.2286 13.533 15.5536L8.667 20.1116V17.2046C8.666 16.0156 7.77 15.2046 6.666 15.2046H2V2.20361Z" fill="black"/>
<path fill-rule="evenodd" clip-rule="evenodd" d="M9.94307 13.2418C10.1431 13.4418 10.4031 13.5418 10.7231 13.5418C11.0431 13.5418 11.3031 13.4418 11.5031 13.2418C11.7031 13.0418 11.8031 12.7818 11.8031 12.4618C11.8031 12.1418 11.7031 11.8818 11.5031 11.6818C11.3031 11.4818 11.0431 11.3818 10.7231 11.3818C10.4031 11.3818 10.1431 11.4818 9.94307 11.6818C9.74307 11.8818 9.64307 12.1418 9.64307 12.4618C9.64307 12.7818 9.74307 13.0418 9.94307 13.2418Z" fill="black"/>
<path fill-rule="evenodd" clip-rule="evenodd" d="M10.075 10.5537C10.123 10.5937 10.203 10.6137 10.315 10.6137H11.083C11.195 10.6137 11.271 10.5897 11.311 10.5417C11.359 10.4937 11.383 10.4177 11.383 10.3137V9.59372C12.103 9.21772 12.623 8.82572 12.943 8.41772C13.263 8.00972 13.423 7.52972 13.423 6.97772C13.423 6.32172 13.207 5.80572 12.775 5.42972C12.351 5.05372 11.759 4.86572 10.999 4.86572C10.319 4.86572 9.67102 5.00972 9.05502 5.29772C8.94302 5.34572 8.87102 5.39772 8.83902 5.45372C8.80702 5.50172 8.79102 5.58572 8.79102 5.70572V6.36572C8.79102 6.54972 8.85902 6.64172 8.99502 6.64172C9.06702 6.64172 9.17902 6.60972 9.33102 6.54572C9.80302 6.35372 10.251 6.25772 10.675 6.25772C11.011 6.25772 11.267 6.33772 11.443 6.49772C11.627 6.64972 11.719 6.86972 11.719 7.15772C11.719 7.46972 11.623 7.74172 11.431 7.97372C11.247 8.19772 10.935 8.42572 10.495 8.65772L10.135 8.84972C10.047 8.89772 9.98302 8.94972 9.94302 9.00572C9.91102 9.05372 9.89502 9.12172 9.89502 9.20972V9.32972C9.90302 9.38572 9.91101 9.44972 9.91901 9.52172L9.99102 10.3377C9.99902 10.4417 10.027 10.5137 10.075 10.5537V10.5537Z" fill="black"/>
</svg>
