<svg width="43" height="35" viewBox="0 0 43 35" fill="none" xmlns="http://www.w3.org/2000/svg">
<g clip-path="url(#clip0_148_29573)">
<path d="M31.2604 24.0629C31.2604 24.0629 28.9696 23.1258 28.9696 21.7385V18.3207C29.035 16.4877 28.3801 14.6976 27.1334 13.302C25.8868 11.9063 24.1386 11.006 22.2321 10.7778V9.79473C22.2321 9.55106 22.1307 9.31737 21.9502 9.14507C21.7697 8.97277 21.5249 8.87598 21.2696 8.87598C21.0144 8.87598 20.7695 8.97277 20.589 9.14507C20.4085 9.31737 20.3071 9.55106 20.3071 9.79473V10.7135C18.385 10.927 16.6176 11.8236 15.3567 13.2247C14.0957 14.6259 13.4336 16.4288 13.5023 18.2748V21.7385C13.5023 23.135 11.2308 24.0629 11.2115 24.0721C11.0342 24.1416 10.8827 24.2601 10.7764 24.4123C10.6701 24.5645 10.6138 24.7436 10.6148 24.9265V26.3322C10.6148 26.5759 10.7162 26.8096 10.8967 26.9819C11.0772 27.1542 11.322 27.251 11.5773 27.251H16.9095C17.0747 28.2746 17.6182 29.208 18.4418 29.8824C19.2653 30.5567 20.3145 30.9274 21.3996 30.9274C22.4846 30.9274 23.5338 30.5567 24.3574 29.8824C25.1809 29.208 25.7245 28.2746 25.8896 27.251H30.8946C31.1499 27.251 31.3947 27.1542 31.5752 26.9819C31.7557 26.8096 31.8571 26.5759 31.8571 26.3322V24.9173C31.8581 24.7344 31.8018 24.5553 31.6955 24.4031C31.5892 24.2509 31.4377 24.1324 31.2604 24.0629V24.0629ZM21.3948 29.0885C20.8221 29.0864 20.2658 28.9057 19.8106 28.574C19.3554 28.2423 19.0261 27.7777 18.873 27.251H23.9261C23.7697 27.7777 23.4383 28.2417 22.9818 28.5731C22.5252 28.9045 21.9683 29.0853 21.3948 29.0885ZM21.2023 25.4135H12.6745C13.7044 24.853 15.4273 23.6311 15.4273 21.7385V18.3207C15.3905 17.57 15.5148 16.82 15.7928 16.1169C16.0708 15.4138 16.4964 14.7723 17.0436 14.2319C17.5907 13.6916 18.2479 13.2637 18.9746 12.9746C19.7014 12.6856 20.4824 12.5414 21.2696 12.551C22.0536 12.5422 22.8311 12.6874 23.5538 12.9776C24.2765 13.2679 24.929 13.6969 25.4706 14.238C26.0122 14.7791 26.4314 15.4208 26.7022 16.1232C26.973 16.8255 27.0896 17.5735 27.0446 18.3207V21.7385C27.0446 23.6403 28.7675 24.8622 29.7974 25.4135H21.2023Z" fill="#161E2D"/>
</g>
<rect x="23.3804" y="1.52637" width="15.75" height="15.75" rx="7.875" fill="#BA3385"/>
<path d="M31.2983 14.4014V5.98142L28.5626 7.04454V5.91054L31.3976 4.57809H32.7158V14.4014H31.2983Z" fill="white"/>
<defs>
<clipPath id="clip0_148_29573">
<rect width="23.1" height="22.05" fill="white" transform="translate(9.72412 8.87598)"/>
</clipPath>
</defs>
</svg>
