<svg width="16" height="16" viewBox="0 0 16 16" fill="none" xmlns="http://www.w3.org/2000/svg">
<path fill-rule="evenodd" clip-rule="evenodd" d="M12.9399 6.93993H9.06007V3.06007C9.06007 2.47461 8.58546 2 8 2C7.41454 2 6.93993 2.47461 6.93993 3.06007V6.93993H3.06007C2.47461 6.93993 2 7.41454 2 8C2 8.58546 2.47461 9.06007 3.06007 9.06007H6.93993V12.9399C6.93993 13.5254 7.41454 14 8 14C8.58546 14 9.06007 13.5254 9.06007 12.9399V9.06007H12.9399C13.5254 9.06007 14 8.58546 14 8C14 7.41454 13.5254 6.93993 12.9399 6.93993Z" fill="#161E2D"/>
</svg>
