<svg width="17" height="17" viewBox="0 0 17 17" fill="none" xmlns="http://www.w3.org/2000/svg">
<path fill-rule="evenodd" clip-rule="evenodd" d="M16.6588 15.4087L12.1132 10.8632C14.0678 8.25277 13.6728 4.57563 11.2084 2.43992C8.74392 0.304209 5.04799 0.4361 2.74204 2.74204C0.4361 5.04799 0.304209 8.74392 2.43992 11.2084C4.57563 13.6728 8.25277 14.0678 10.8632 12.1132L15.4087 16.6588C15.5733 16.8267 15.7986 16.9214 16.0337 16.9214C16.2689 16.9214 16.4942 16.8267 16.6588 16.6588C16.8267 16.4942 16.9214 16.2689 16.9214 16.0337C16.9214 15.7986 16.8267 15.5733 16.6588 15.4087ZM2.78346 7.19264C2.78346 5.40367 3.86173 3.79106 5.51497 3.10751C7.16821 2.42397 9.07046 2.80426 10.3338 4.07088C11.5972 5.33751 11.9726 7.24073 11.2848 8.8922C10.597 10.5437 8.98161 11.6178 7.19264 11.6132C6.02128 11.6132 4.89806 11.1471 4.07085 10.3178C3.24364 9.48841 2.78044 8.364 2.78346 7.19264V7.19264Z" fill="#394451"/>
</svg>
